ffmpeg version 4.3 Copyright (c) 2000-2020 the FFmpeg developers
  built with gcc 7.3.0 (crosstool-NG 1.23.0.449-a04d0)
  configuration: --prefix=/home/yfliu/anaconda3 --cc=/opt/conda/conda-bld/ffmpeg_1597178665428/_build_env/bin/x86_64-conda_cos6-linux-gnu-cc --disable-doc --disable-openssl --enable-avresample --enable-gnutls --enable-hardcoded-tables --enable-libfreetype --enable-libopenh264 --enable-pic --enable-pthreads --enable-shared --disable-static --enable-version3 --enable-zlib --enable-libmp3lame
  libavutil      56. 51.100 / 56. 51.100
  libavcodec     58. 91.100 / 58. 91.100
  libavformat    58. 45.100 / 58. 45.100
  libavdevice    58. 10.100 / 58. 10.100
  libavfilter     7. 85.100 /  7. 85.100
  libavresample   4.  0.  0 /  4.  0.  0
  libswscale      5.  7.100 /  5.  7.100
  libswresample   3.  7.100 /  3.  7.100
Input #0, mov,mp4,m4a,3gp,3g2,mj2, from '/data0/yfliu/voxceleb2//test/mp4/id01106/8NsKqf8qdIE/00049.mp4':
  Metadata:
    major_brand     : isom
    minor_version   : 512
    compatible_brands: isomiso2avc1mp41
    encoder         : Lavf57.83.100
  Duration: 00:00:54.26, start: 0.000000, bitrate: 228 kb/s
    Stream #0:0(und): Video: h264 (High) (avc1 / 0x31637661), yuv420p, 224x224 [SAR 1:1 DAR 1:1], 153 kb/s, 25 fps, 25 tbr, 12800 tbn, 50 tbc (default)
    Metadata:
      handler_name    : VideoHandler
    Stream #0:1(und): Audio: aac (LC) (mp4a / 0x6134706D), 16000 Hz, mono, fltp, 71 kb/s (default)
    Metadata:
      handler_name    : SoundHandler
Guessed Channel Layout for Input Stream #1.0 : mono
Input #1, wav, from '/data0/yfliu/outputs/baseline/nonparallel/output_top200/1gbs64_mi_0.01_1_farlonly_fromscratch_16imgs/test_samples_N+swapped/mp4/id01106/8NsKqf8qdIE/00049_test_mp4_id01041_eMRxqsB3ghc_00358_vc.mp3':
  Duration: 00:00:54.20, bitrate: 512 kb/s
    Stream #1:0: Audio: pcm_f32le ([3][0][0][0] / 0x0003), 16000 Hz, mono, flt, 512 kb/s
Stream mapping:
  Stream #0:0 -> #0:0 (copy)
  Stream #1:0 -> #0:1 (pcm_f32le (native) -> aac (native))
Press [q] to stop, [?] for help
Output #0, mp4, to '/data0/yfliu/outputs/baseline/nonparallel/output_top200/1gbs64_mi_0.01_1_farlonly_fromscratch_16imgs/test_samples_N+swapped/mp4/id01106/8NsKqf8qdIE/00049_test_mp4_id01041_eMRxqsB3ghc_00358_vc.mp4':
  Metadata:
    major_brand     : isom
    minor_version   : 512
    compatible_brands: isomiso2avc1mp41
    encoder         : Lavf58.45.100
    Stream #0:0(und): Video: h264 (High) (avc1 / 0x31637661), yuv420p, 224x224 [SAR 1:1 DAR 1:1], q=2-31, 153 kb/s, 25 fps, 25 tbr, 12800 tbn, 12800 tbc (default)
    Metadata:
      handler_name    : VideoHandler
    Stream #0:1: Audio: aac (LC) (mp4a / 0x6134706D), 16000 Hz, mono, fltp, 69 kb/s
    Metadata:
      encoder         : Lavc58.91.100 aac
frame= 1355 fps=0.0 q=-1.0 Lsize=    1498kB time=00:00:54.08 bitrate= 226.9kbits/s speed= 371x    
video:1014kB audio:457kB subtitle:0kB other streams:0kB global headers:0kB muxing overhead: 1.827605%
[aac @ 0x564fbe771e80] Qavg: 139.608
